<svg width="20" height="15" viewBox="0 0 20 15" fill="none" xmlns="http://www.w3.org/2000/svg">
<path d="M19.239 2.47181C18.8262 2.21172 18.3187 2.18871 17.8861 2.40879L16.4258 3.14606C15.8858 3.41816 15.5508 3.96836 15.5508 4.58058V10.3287C15.5508 10.9399 15.8858 11.4901 16.4258 11.7642L17.8851 12.5005C18.0832 12.6015 18.295 12.6515 18.5069 12.6515C18.7611 12.6515 19.0134 12.5795 19.239 12.4385C19.6519 12.1794 19.8982 11.7302 19.8982 11.237V3.67325C19.8982 3.18107 19.6519 2.73091 19.239 2.47181" fill="#9A9A9A"/>
<path d="M9.9515 0.0644531H4.24423C1.85767 0.0644531 0.191406 1.70905 0.191406 4.06592V10.8434C0.191406 13.2003 1.85767 14.8449 4.24423 14.8449H9.9515C12.3381 14.8449 14.0043 13.2003 14.0043 10.8434V4.06592C14.0043 1.70905 12.3381 0.0644531 9.9515 0.0644531" fill="#9A9A9A"/>
</svg>
