<svg width="16" height="16" viewBox="0 0 16 16" fill="none" xmlns="http://www.w3.org/2000/svg">
<path d="M15.0765 0.92428C14.7014 0.539242 14.1462 0.395796 13.6284 0.546791L1.556 4.05744C1.00977 4.20919 0.622615 4.64481 0.518323 5.19821C0.411779 5.76142 0.783931 6.47638 1.27013 6.77535L5.04493 9.0954C5.43208 9.33322 5.93179 9.27357 6.25217 8.95044L10.5747 4.60102C10.7923 4.37453 11.1524 4.37453 11.37 4.60102C11.5876 4.81996 11.5876 5.1748 11.37 5.4013L7.03999 9.75147C6.71886 10.0739 6.65884 10.5759 6.89518 10.9655L9.20163 14.7781C9.47174 15.2311 9.93693 15.4878 10.4471 15.4878C10.5072 15.4878 10.5747 15.4878 10.6347 15.4802C11.22 15.4047 11.6851 15.0046 11.8577 14.4384L15.4367 2.38139C15.5942 1.868 15.4517 1.30932 15.0765 0.92428Z" fill="#9A9A9A"/>
</svg>
