<svg width="18" height="19" viewBox="0 0 18 19" fill="none" xmlns="http://www.w3.org/2000/svg">
<path d="M16.9898 16.9409H11.2798C10.7226 16.9409 10.2695 17.3999 10.2695 17.9643C10.2695 18.5297 10.7226 18.9877 11.2798 18.9877H16.9898C17.547 18.9877 18.0001 18.5297 18.0001 17.9643C18.0001 17.3999 17.547 16.9409 16.9898 16.9409" fill="#9A9A9A"/>
<path d="M15.1628 6.65323L6.3764 18.0157C5.97316 18.5317 5.37891 18.8219 4.74222 18.8327L1.24039 18.8757C1.04939 18.8757 0.890213 18.7467 0.847767 18.5639L0.0518984 15.1133C-0.086052 14.479 0.0518984 13.8233 0.455138 13.3181L6.68413 5.25577C6.79025 5.12677 6.98126 5.10635 7.1086 5.20202L9.72966 7.28747C9.89944 7.42721 10.1329 7.50246 10.377 7.47021C10.8969 7.40571 11.2471 6.93272 11.1941 6.42749C11.1622 6.16949 11.0349 5.9545 10.8651 5.79325C10.812 5.75025 8.31832 3.7508 8.31832 3.7508C8.15914 3.62181 8.12731 3.38531 8.25465 3.22514L9.24152 1.94485C10.1541 0.77313 11.7459 0.665632 13.0299 1.68686L14.5049 2.85858C15.1097 3.33157 15.513 3.95505 15.6509 4.61078C15.8101 5.33209 15.6403 6.0405 15.1628 6.65323" fill="#9A9A9A"/>
</svg>
