<svg width="18" height="18" viewBox="0 0 18 18" fill="none" xmlns="http://www.w3.org/2000/svg">
<path d="M3.12486 8.42515H2.06236C1.9206 8.41663 1.77866 8.43827 1.64589 8.48865C1.51312 8.53904 1.39254 8.61701 1.29213 8.71742C1.19172 8.81784 1.11374 8.93841 1.06336 9.07118C1.01298 9.20395 0.991335 9.3459 0.999856 9.48765V16.9251C0.991335 17.0669 1.01298 17.2088 1.06336 17.3416C1.11374 17.4744 1.19172 17.595 1.29213 17.6954C1.39254 17.7958 1.51312 17.8738 1.64589 17.9241C1.77866 17.9745 1.9206 17.9962 2.06236 17.9876H3.12486V8.42515Z" fill="#9A9A9A"/>
<path d="M15.875 7.36251H10.5625V3.11251C10.5795 2.829 10.5363 2.54511 10.4355 2.27957C10.3347 2.01403 10.1788 1.77288 9.97795 1.57205C9.77712 1.37122 9.53598 1.21528 9.27044 1.11452C9.0049 1.01375 8.721 0.970463 8.4375 0.987505L5.25 8.42501V17.9875H13.75C14.4825 17.9967 15.1945 17.7454 15.7589 17.2783C16.3233 16.8113 16.7033 16.1588 16.8313 15.4375L17.8938 9.9125C17.9688 9.60775 17.9731 9.28986 17.9064 8.98317C17.8398 8.67648 17.7038 8.3891 17.509 8.14302C17.3142 7.89694 17.0657 7.69868 16.7825 7.5634C16.4992 7.42811 16.1888 7.3594 15.875 7.36251Z" fill="#9A9A9A"/>
</svg>
