<svg width="21" height="19" viewBox="0 0 21 19" fill="none" xmlns="http://www.w3.org/2000/svg">
<path fill-rule="evenodd" clip-rule="evenodd" d="M16.0226 3.64654C16.062 3.71544 16.1309 3.76466 16.2196 3.76466C18.5845 3.76466 20.5158 5.69382 20.5158 8.05606V13.9026C20.5158 16.2648 18.5845 18.194 16.2196 18.194H5.10477C2.73005 18.194 0.808594 16.2648 0.808594 13.9026V8.05606C0.808594 5.69382 2.73005 3.76466 5.10477 3.76466C5.18359 3.76466 5.26242 3.72529 5.29198 3.64654L5.35111 3.52843C5.38508 3.45693 5.41994 3.38349 5.45534 3.30893C5.70742 2.77798 5.98629 2.19057 6.1591 1.84534C6.61237 0.959496 7.38095 0.467362 8.33675 0.45752H12.9778C13.9336 0.467362 14.712 0.959496 15.1653 1.84534C15.3205 2.15541 15.557 2.6549 15.7849 3.1363C15.8319 3.23558 15.8785 3.33409 15.924 3.43001L16.0226 3.64654ZM15.3032 7.42613C15.3032 7.91826 15.6974 8.31197 16.1901 8.31197C16.6828 8.31197 17.0867 7.91826 17.0867 7.42613C17.0867 6.93399 16.6828 6.53045 16.1901 6.53045C15.6974 6.53045 15.3032 6.93399 15.3032 7.42613ZM8.95752 8.95174C9.42064 8.48914 10.0217 8.24307 10.6622 8.24307C11.3027 8.24307 11.9038 8.48914 12.357 8.9419C12.8103 9.39466 13.0566 9.99506 13.0566 10.6348C13.0468 11.9538 11.9826 13.0266 10.6622 13.0266C10.0217 13.0266 9.42064 12.7805 8.96738 12.3278C8.51411 11.875 8.26777 11.2746 8.26777 10.6348V10.625C8.25792 10.0049 8.50426 9.4045 8.95752 8.95174ZM13.3916 13.3711C12.692 14.0699 11.7264 14.503 10.6622 14.503C9.62757 14.503 8.66192 14.0995 7.9229 13.3711C7.19373 12.6329 6.78973 11.6683 6.78973 10.6348C6.77988 9.6112 7.18388 8.64662 7.91304 7.90842C8.65206 7.17022 9.62757 6.76667 10.6622 6.76667C11.6968 6.76667 12.6723 7.17022 13.4015 7.89858C14.1307 8.63678 14.5347 9.6112 14.5347 10.6348C14.5248 11.7077 14.0913 12.6723 13.3916 13.3711Z" fill="#9A9A9A"/>
</svg>
