<svg width="24" height="25" viewBox="0 0 24 25" fill="none" xmlns="http://www.w3.org/2000/svg">
<path fill-rule="evenodd" clip-rule="evenodd" d="M17.011 15.5893C17.425 15.5893 17.761 15.2533 17.761 14.8393V12.9873C17.761 12.5733 17.425 12.2373 17.011 12.2373H11.319C10.995 11.1703 10.013 10.3863 8.841 10.3863C7.407 10.3863 6.24 11.5533 6.24 12.9873C6.24 14.4223 7.407 15.5893 8.841 15.5893C10.013 15.5893 10.995 14.8053 11.319 13.7373H13.431V14.8393C13.431 15.2533 13.767 15.5893 14.181 15.5893C14.595 15.5893 14.931 15.2533 14.931 14.8393V13.7373H16.261V14.8393C16.261 15.2533 16.597 15.5893 17.011 15.5893ZM7.666 2.9873H16.335C19.723 2.9873 22 5.3653 22 8.9043V17.0713C22 20.6103 19.723 22.9873 16.334 22.9873H7.666C4.277 22.9873 2 20.6103 2 17.0713V8.9043C2 5.3653 4.277 2.9873 7.666 2.9873ZM7.7391 12.9882C7.7391 12.3802 8.2341 11.8862 8.8411 11.8862C9.4481 11.8862 9.9431 12.3802 9.9431 12.9882C9.9431 13.5952 9.4481 14.0892 8.8411 14.0892C8.2341 14.0892 7.7391 13.5952 7.7391 12.9882Z" fill="#3F61DB"/>
</svg>
