<svg width="18" height="21" viewBox="0 0 18 21" fill="none" xmlns="http://www.w3.org/2000/svg">
<path fill-rule="evenodd" clip-rule="evenodd" d="M4.81 0.988281H13.191C16.28 0.988281 18 2.76828 18 5.81828V16.1483C18 19.2483 16.28 20.9883 13.191 20.9883H4.81C1.77 20.9883 0 19.2483 0 16.1483V5.81828C0 2.76828 1.77 0.988281 4.81 0.988281ZM5.08 5.64828V5.63828H8.069C8.5 5.63828 8.85 5.98828 8.85 6.41728C8.85 6.85828 8.5 7.20828 8.069 7.20828H5.08C4.649 7.20828 4.3 6.85828 4.3 6.42828C4.3 5.99828 4.649 5.64828 5.08 5.64828ZM5.08 11.7283H12.92C13.35 11.7283 13.7 11.3783 13.7 10.9483C13.7 10.5183 13.35 10.1673 12.92 10.1673H5.08C4.649 10.1673 4.3 10.5183 4.3 10.9483C4.3 11.3783 4.649 11.7283 5.08 11.7283ZM5.08 16.2983H12.92C13.319 16.2583 13.62 15.9173 13.62 15.5183C13.62 15.1083 13.319 14.7683 12.92 14.7283H5.08C4.78 14.6983 4.49 14.8383 4.33 15.0983C4.17 15.3483 4.17 15.6783 4.33 15.9383C4.49 16.1883 4.78 16.3383 5.08 16.2983Z" fill="#3F61DB"/>
</svg>
