<svg width="20" height="21" viewBox="0 0 20 21" fill="none" xmlns="http://www.w3.org/2000/svg">
<path fill-rule="evenodd" clip-rule="evenodd" d="M0 11.0033C0 5.7354 4.21 0.988281 10.02 0.988281C15.7 0.988281 20 5.64527 20 10.9733C20 17.1525 14.96 20.9883 10 20.9883C8.36 20.9883 6.54 20.5476 5.08 19.6863C4.57 19.3759 4.14 19.1455 3.59 19.3258L1.57 19.9267C1.06 20.0869 0.6 19.6863 0.75 19.1455L1.42 16.9022C1.53 16.5917 1.51 16.2612 1.35 16.0008C0.49 14.4184 0 12.6858 0 11.0033ZM8.7 11.0033C8.7 11.7144 9.27 12.2852 9.98 12.2952C10.69 12.2952 11.26 11.7144 11.26 11.0133C11.26 10.3023 10.69 9.7314 9.98 9.7314C9.28 9.72138 8.7 10.3023 8.7 11.0033ZM13.31 11.0133C13.31 11.7144 13.88 12.2952 14.59 12.2952C15.3 12.2952 15.87 11.7144 15.87 11.0133C15.87 10.3023 15.3 9.7314 14.59 9.7314C13.88 9.7314 13.31 10.3023 13.31 11.0133ZM5.37 12.2952C4.67 12.2952 4.09 11.7144 4.09 11.0133C4.09 10.3023 4.66 9.7314 5.37 9.7314C6.08 9.7314 6.65 10.3023 6.65 11.0133C6.65 11.7144 6.08 12.2852 5.37 12.2952Z" fill="#3F61DB"/>
</svg>
