<svg width="22" height="17" viewBox="0 0 22 17" fill="none" xmlns="http://www.w3.org/2000/svg">
<path fill-rule="evenodd" clip-rule="evenodd" d="M15.1583 5.22113C15.1583 7.57082 13.2851 9.45489 10.949 9.45489C8.61292 9.45489 6.73974 7.57082 6.73974 5.22113C6.73974 2.87055 8.61292 0.988281 10.949 0.988281C13.2851 0.988281 15.1583 2.87055 15.1583 5.22113ZM10.949 16.9883C7.51785 16.9883 4.58809 16.4443 4.58809 14.2684C4.58809 12.0917 7.49904 11.5279 10.949 11.5279C14.3802 11.5279 17.31 12.0719 17.31 14.2486C17.31 16.4245 14.399 16.9883 10.949 16.9883ZM16.9571 5.2975C16.9571 6.49531 16.5998 7.61116 15.973 8.53879C15.9086 8.63425 15.9659 8.76304 16.0796 8.78285C16.2363 8.80987 16.3984 8.82518 16.5631 8.82968C18.2062 8.87291 19.6809 7.8093 20.0883 6.20802C20.6918 3.82952 18.9198 1.69418 16.6634 1.69418C16.4181 1.69418 16.1835 1.72029 15.9551 1.76713C15.9238 1.77433 15.8907 1.78874 15.8728 1.81666C15.8513 1.85088 15.8674 1.89681 15.8889 1.92653C16.5667 2.88208 16.9571 4.04746 16.9571 5.2975ZM19.6782 10.5008C20.7823 10.7179 21.5084 11.161 21.8093 11.8049C22.0636 12.3336 22.0636 12.9469 21.8093 13.4747C21.349 14.4734 19.8654 14.794 19.2887 14.8769C19.1696 14.8949 19.0738 14.7913 19.0864 14.6716C19.3809 11.904 17.0377 10.5918 16.4315 10.2901C16.4055 10.2766 16.4002 10.2559 16.4028 10.2433C16.4046 10.2343 16.4154 10.2199 16.4351 10.2172C17.7468 10.1928 19.1571 10.373 19.6782 10.5008ZM5.43711 8.82959C5.60186 8.82509 5.76304 8.81068 5.92063 8.78276C6.03434 8.76295 6.09165 8.63416 6.02718 8.5387C5.4004 7.61107 5.04313 6.49522 5.04313 5.29741C5.04313 4.04737 5.43353 2.88199 6.11135 1.92644C6.13284 1.89672 6.14806 1.85079 6.12746 1.81657C6.10956 1.78955 6.07553 1.77424 6.04509 1.76704C5.81586 1.7202 5.58127 1.69409 5.33593 1.69409C3.07951 1.69409 1.30751 3.82943 1.91191 6.20793C2.31932 7.80921 3.79405 8.87282 5.43711 8.82959ZM5.59694 10.2427C5.59962 10.2562 5.59425 10.2761 5.56918 10.2905C4.9621 10.5922 2.61883 11.9044 2.91342 14.671C2.92595 14.7917 2.83104 14.8944 2.71195 14.8773C2.13531 14.7944 0.651629 14.4738 0.191392 13.475C-0.0637974 12.9464 -0.0637974 12.3339 0.191392 11.8053C0.492248 11.1614 1.21752 10.7183 2.32156 10.5003C2.84358 10.3733 4.25294 10.1932 5.5656 10.2175C5.5853 10.2202 5.59515 10.2346 5.59694 10.2427Z" fill="#3F61DB"/>
</svg>
