<svg width="20" height="21" viewBox="0 0 20 21" fill="none" xmlns="http://www.w3.org/2000/svg">
<path fill-rule="evenodd" clip-rule="evenodd" d="M5.66618 20.9883H14.3328C17.7231 20.9883 20 18.6102 20 15.0716V6.905C20 3.36639 17.7231 0.988281 14.3338 0.988281H5.66618C2.2769 0.988281 0 3.36639 0 6.905V15.0716C0 18.6102 2.2769 20.9883 5.66618 20.9883ZM6.49886 9.98828C5.12021 9.98828 4 8.86655 4 7.48828C4 6.11001 5.12021 4.98828 6.49886 4.98828C7.8765 4.98828 8.99772 6.11001 8.99772 7.48828C8.99772 8.86655 7.8765 9.98828 6.49886 9.98828ZM17.8208 13.9222C18.1557 14.7809 17.9817 15.8128 17.6237 16.6632C17.1994 17.6746 16.3869 18.4403 15.3632 18.7747C14.9087 18.9233 14.432 18.9883 13.9564 18.9883H5.52864C4.68999 18.9883 3.94788 18.787 3.3395 18.4124C2.95839 18.1771 2.89102 17.6343 3.17358 17.2824C3.6462 16.6942 4.11279 16.1039 4.5834 15.5084C5.48038 14.3691 6.08473 14.0388 6.75645 14.3288C7.02896 14.4485 7.30248 14.6281 7.58404 14.818C8.3342 15.3278 9.37699 16.0285 10.7506 15.268C11.6906 14.7415 12.2358 13.8384 12.7106 13.052L12.7185 13.0388C12.7522 12.9837 12.7855 12.9285 12.8187 12.8735C12.9783 12.6095 13.1357 12.349 13.3138 12.109C13.5371 11.8087 14.3646 10.8696 15.4366 11.5383C16.1194 11.9594 16.6936 12.529 17.308 13.139C17.5423 13.3722 17.7092 13.6374 17.8208 13.9222Z" fill="#3F61DB"/>
</svg>
