<svg width="24" height="25" viewBox="0 0 24 25" fill="none" xmlns="http://www.w3.org/2000/svg">
<path d="M14.4183 6.47804C13.9422 6.3901 13.505 6.69389 13.4144 7.15857C13.3238 7.62325 13.6285 8.07694 14.0916 8.16788C15.4859 8.43969 16.5624 9.51895 16.8353 10.918V10.919C16.913 11.3217 17.2675 11.6145 17.6759 11.6145C17.7306 11.6145 17.7854 11.6095 17.8412 11.5995C18.3043 11.5066 18.609 11.0539 18.5184 10.5882C18.1111 8.49865 16.5027 6.88476 14.4183 6.47804Z" fill="#3F61DB"/>
<path d="M14.3558 2.99621C14.1328 2.96423 13.9087 3.03019 13.7304 3.17209C13.5472 3.31599 13.4326 3.52385 13.4078 3.75669C13.355 4.22737 13.6946 4.65307 14.1646 4.70604C17.4063 5.06779 19.9259 7.59305 20.2904 10.8448C20.3392 11.2805 20.7047 11.6093 21.1409 11.6093C21.1738 11.6093 21.2057 11.6073 21.2385 11.6033C21.4666 11.5783 21.6698 11.4654 21.8132 11.2855C21.9556 11.1056 22.0203 10.8818 21.9944 10.653C21.5403 6.59574 18.4002 3.4469 14.3558 2.99621Z" fill="#3F61DB"/>
<path fill-rule="evenodd" clip-rule="evenodd" d="M11.0317 13.9607C15.0208 17.9486 15.9258 13.335 18.4656 15.8731C20.9143 18.321 22.3216 18.8115 19.2192 21.913C18.8306 22.2253 16.3616 25.9825 7.6846 17.3079C-0.993478 8.63228 2.76158 6.16073 3.07397 5.77223C6.18387 2.66213 6.66586 4.07766 9.11449 6.52561C11.6544 9.06478 7.04266 9.9727 11.0317 13.9607Z" fill="#3F61DB"/>
</svg>
