<svg width="28" height="22" viewBox="0 0 28 22" fill="none" xmlns="http://www.w3.org/2000/svg">
<path d="M0.805176 5.15098C4.53745 2.12735 9.19683 0.48071 14.0002 0.487816C18.9993 0.487816 23.5902 2.23432 27.1952 5.15098L25.7298 6.96632C22.4121 4.2784 18.2701 2.81466 14.0002 2.82115C9.55634 2.82115 5.47651 4.37282 2.27051 6.96632L0.805176 5.15098ZM4.46968 9.68932C7.16538 7.50531 10.5308 6.31595 14.0002 6.32115C17.4694 6.316 20.8346 7.5049 23.5307 9.68815L22.0642 11.5035C19.7832 9.65587 16.9356 8.64983 14.0002 8.65448C10.9458 8.65448 8.14001 9.72198 5.93618 11.5035L4.46968 9.68815V9.68932ZM8.13534 14.2277C9.79416 12.8835 11.8651 12.1515 14.0002 12.1545C16.2215 12.1545 18.262 12.9303 19.865 14.2265L18.3985 16.0418C17.1544 15.0341 15.6012 14.4853 14.0002 14.4878C12.3342 14.4878 10.8035 15.07 9.60184 16.0418L8.13534 14.2265V14.2277ZM11.801 18.766C12.4229 18.2617 13.1995 17.9869 14.0002 17.9878C14.8332 17.9878 15.5985 18.2795 16.1993 18.7648L14.0002 21.4878L11.801 18.7648V18.766Z" fill="#3F61DB"/>
</svg>
