<svg width="25" height="25" viewBox="0 0 25 25" fill="none" xmlns="http://www.w3.org/2000/svg">
<path d="M9.66683 22.3212H5.00016V24.6545H2.66683V22.3212H1.50016C1.19074 22.3212 0.893997 22.1982 0.675205 21.9795C0.456412 21.7607 0.333496 21.4639 0.333496 21.1545V3.6545C0.333496 3.34508 0.456412 3.04833 0.675205 2.82954C0.893997 2.61075 1.19074 2.48783 1.50016 2.48783H9.66683V0.842831C9.66687 0.758154 9.68534 0.674501 9.72097 0.597683C9.75659 0.520866 9.80851 0.452724 9.87312 0.397993C9.93773 0.343263 10.0135 0.303254 10.0951 0.280748C10.1767 0.258242 10.2623 0.253777 10.3458 0.267664L22.6915 2.32566C22.9639 2.37095 23.2114 2.51141 23.39 2.72205C23.5686 2.93268 23.6667 3.19984 23.6668 3.476V5.98783H24.8335V8.32116H23.6668V16.4878H24.8335V18.8212H23.6668V21.333C23.6667 21.6092 23.5686 21.8763 23.39 22.0869C23.2114 22.2976 22.9639 22.438 22.6915 22.4833L21.3335 22.7097V24.6545H19.0002V23.0993L10.3458 24.5413C10.2623 24.5552 10.1767 24.5508 10.0951 24.5282C10.0135 24.5057 9.93773 24.4657 9.87312 24.411C9.80851 24.3563 9.75659 24.2881 9.72097 24.2113C9.68534 24.1345 9.66687 24.0508 9.66683 23.9662V22.3212ZM12.0002 21.9012L21.3335 20.3448V4.46416L12.0002 2.909V21.9V21.9012ZM17.2502 15.3212C16.2842 15.3212 15.5002 14.0145 15.5002 12.4045C15.5002 10.7945 16.2842 9.48783 17.2502 9.48783C18.2162 9.48783 19.0002 10.7945 19.0002 12.4045C19.0002 14.0145 18.2162 15.3212 17.2502 15.3212Z" fill="#3F61DB"/>
</svg>
