<svg width="18" height="24" viewBox="0 0 18 24" fill="none" xmlns="http://www.w3.org/2000/svg">
<path d="M3.16683 2.65462V21.3213H14.8335V2.65462H3.16683ZM2.00016 0.321289H16.0002C16.3096 0.321289 16.6063 0.444205 16.8251 0.662998C17.0439 0.88179 17.1668 1.17854 17.1668 1.48796V22.488C17.1668 22.7974 17.0439 23.0941 16.8251 23.3129C16.6063 23.5317 16.3096 23.6546 16.0002 23.6546H2.00016C1.69074 23.6546 1.394 23.5317 1.17521 23.3129C0.956413 23.0941 0.833496 22.7974 0.833496 22.488V1.48796C0.833496 1.17854 0.956413 0.88179 1.17521 0.662998C1.394 0.444205 1.69074 0.321289 2.00016 0.321289ZM9.00016 17.8213C9.30958 17.8213 9.60633 17.9442 9.82512 18.163C10.0439 18.3818 10.1668 18.6785 10.1668 18.988C10.1668 19.2974 10.0439 19.5941 9.82512 19.8129C9.60633 20.0317 9.30958 20.1546 9.00016 20.1546C8.69074 20.1546 8.394 20.0317 8.1752 19.8129C7.95641 19.5941 7.8335 19.2974 7.8335 18.988C7.8335 18.6785 7.95641 18.3818 8.1752 18.163C8.394 17.9442 8.69074 17.8213 9.00016 17.8213Z" fill="#3F61DB"/>
</svg>
