<svg width="24" height="22" viewBox="0 0 24 22" fill="none" xmlns="http://www.w3.org/2000/svg">
<path d="M1.50016 0.487793H22.5002C22.8096 0.487793 23.1063 0.610709 23.3251 0.829502C23.5439 1.04829 23.6668 1.34504 23.6668 1.65446V20.3211C23.6668 20.6305 23.5439 20.9273 23.3251 21.1461C23.1063 21.3649 22.8096 21.4878 22.5002 21.4878H1.50016C1.19074 21.4878 0.893997 21.3649 0.675205 21.1461C0.456412 20.9273 0.333496 20.6305 0.333496 20.3211V1.65446C0.333496 1.34504 0.456412 1.04829 0.675205 0.829502C0.893997 0.610709 1.19074 0.487793 1.50016 0.487793ZM21.3335 10.9878H2.66683V19.1545H21.3335V10.9878ZM21.3335 6.32113V2.82113H2.66683V6.32113H21.3335Z" fill="#3F61DB"/>
</svg>
