<?xml version="1.0" encoding="utf-8"?>
<!-- Generator: Adobe Illustrator 24.0.0, SVG Export Plug-In . SVG Version: 6.00 Build 0)  -->
<svg version="1.1" id="Layer_1" xmlns="http://www.w3.org/2000/svg" xmlns:xlink="http://www.w3.org/1999/xlink" x="0px" y="0px"
	 viewBox="0 0 90 28" style="enable-background:new 0 0 90 28;" xml:space="preserve">
<style type="text/css">
	.st0{clip-path:url(#SVGID_2_);}
	.st1{fill:#3F61DB;stroke:#FFFFFF;stroke-width:0.4;}
	.st2{fill:#3F61DB;}
</style>
<g>
	<defs>
		<rect id="SVGID_1_" y="0" width="90" height="28"/>
	</defs>
	<clipPath id="SVGID_2_">
		<use xlink:href="#SVGID_1_"  style="overflow:visible;"/>
	</clipPath>
	<g class="st0">
		<path class="st1" d="M31.2,19.8L31.1,20l0.1,0.1c1.6,1.3,3.8,2,6,2h0c1.8,0,3.3-0.5,4.3-1.3c1-0.8,1.6-2.1,1.6-3.5
			c0-1.1-0.3-2-1-2.7c-0.6-0.7-1.6-1.2-2.8-1.5l0,0l-3-0.7l0,0c-0.9-0.2-1.4-0.5-1.8-0.8c-0.3-0.3-0.5-0.7-0.5-1.1
			c0-0.6,0.3-1.1,0.7-1.4c0.5-0.4,1.2-0.6,2.2-0.6c1.5,0,2.8,0.5,3.9,1.6l0.1,0.1l0.1-0.1l1.5-1.6l0.1-0.1l-0.1-0.1
			C41.4,6.8,39.3,6,37.2,6c-3.4,0-5.7,1.9-5.7,4.6c0,1,0.3,1.9,1,2.6c0.7,0.7,1.6,1.2,2.8,1.5l0,0l3,0.7h0c0.8,0.2,1.4,0.5,1.7,0.8
			c0.3,0.3,0.5,0.7,0.5,1.2c0,0.6-0.3,1.2-0.8,1.6c-0.5,0.4-1.3,0.6-2.3,0.6c-1.5,0-3-0.5-4.5-1.7l-0.2-0.1L32.6,18L31.2,19.8z"/>
		<path class="st1" d="M45.5,5.5h-0.2v0.2v16v0.2h0.2h2.2h0.2v-0.2v-16V5.5h-0.2H45.5z"/>
		<path class="st1" d="M61.8,10.7l0.1-0.3h-0.3h-2.3h-0.1l-0.1,0.1l-3.3,7.8l-3.5-7.8l-0.1-0.1h-0.1h-2.5h-0.3l0.1,0.3l4.9,10.8
			l-2.1,4.9l-0.1,0.3h0.3h2.3h0.1l0.1-0.1L61.8,10.7z"/>
		<path class="st1" d="M74,5.7V5.5h-0.2h-2.2h-0.2v0.2v5.5c-0.9-0.6-2-1-3.2-1c-3.2,0-5.8,2.5-5.8,6c0,3.5,2.6,6,5.8,6
			c1.2,0,2.3-0.3,3.2-1v0.5v0.2h0.2h2.2H74v-0.2V5.7z M68.5,12.5c1.1,0,2.2,0.5,2.9,1.3v4.6c-0.7,0.9-1.8,1.3-2.9,1.3
			c-1.9,0-3.5-1.4-3.5-3.6C65,13.9,66.6,12.5,68.5,12.5z"/>
		<path class="st1" d="M82.4,10.2c-3.5,0-6.1,2.5-6.1,6c0,3.5,2.6,6,6.1,6c3.5,0,6.1-2.5,6.1-6C88.4,12.7,85.8,10.2,82.4,10.2z
			 M82.4,12.5c2,0,3.4,1.5,3.4,3.6c0,2.1-1.4,3.6-3.4,3.6c-2,0-3.5-1.5-3.5-3.6C78.9,14.1,80.4,12.5,82.4,12.5z"/>
		<path class="st2" d="M9.3,24.6c-0.9-0.9-0.9-2.3,0-3.2l0.8-0.8c0.1-0.1,0.1-0.2,0.1-0.2c0,0,0-0.1-0.1-0.2l-0.8-0.8
			c-0.9-0.9-0.9-2.3,0-3.2l0.8-0.8c0.1-0.1,0.1-0.2,0.1-0.2c0,0,0-0.1-0.1-0.2l-0.8-0.8c-0.9-0.9-0.9-2.3,0-3.2l0.8-0.8
			c0.1-0.1,0.1-0.2,0.1-0.2c0,0,0-0.1-0.1-0.2L9.3,9.3C8.4,8.4,8.4,7,9.3,6.1L10,5.3c0.1-0.1,0.1-0.2,0.1-0.2c0,0,0-0.1-0.1-0.2
			L9.3,4.1c-0.4-0.4-0.7-1-0.7-1.6C8.6,2,8.8,1.4,9.3,1l0.2-0.2c0.3-0.3,0.6-0.5,1-0.7c0,0-0.1,0-0.1,0C4.6,0,0,9.3,0,16
			c0,4.8,2.4,9,5.9,11l0,0c1.1,0.6,2.5,0.4,3.5-0.5l0.7-0.7c0.1-0.1,0.1-0.3,0-0.5L9.3,24.6z"/>
		<path class="st2" d="M14.8,2c0,0-0.1-0.1-0.1-0.1C13.6,1,11.9,1,10.9,2.1l-0.2,0.2c-0.1,0.1-0.1,0.2-0.1,0.2c0,0.1,0,0.1,0.1,0.2
			l0.8,0.8c0.4,0.4,0.7,1,0.7,1.6c0,0.6-0.2,1.2-0.7,1.6l-0.8,0.8c-0.1,0.1-0.1,0.3,0,0.5l0.8,0.8c0.4,0.4,0.7,1,0.7,1.6
			c0,0.6-0.2,1.2-0.7,1.6l-0.8,0.8c-0.1,0.1-0.1,0.3,0,0.5l0.8,0.8c0.4,0.4,0.7,1,0.7,1.6c0,0.6-0.2,1.2-0.7,1.6l-0.8,0.8
			c-0.1,0.1-0.1,0.3,0,0.5l0.8,0.8c0.4,0.4,0.7,1,0.7,1.6c0,0.6-0.2,1.2-0.7,1.6l-0.8,0.8c-0.1,0.1-0.1,0.3,0,0.5l0.8,0.8
			c0.9,0.9,0.9,2.3,0,3.2l-0.7,0.7c-0.1,0.1-0.2,0.2-0.4,0.3c5.7,0,10.3-5.5,10.3-12.2C20.7,11.2,18.3,5,14.8,2z"/>
	</g>
</g>
</svg>
